<?xml version="1.0" encoding="UTF-8"?>
<svg width="1440" height="320" viewBox="0 0 1440 320" xmlns="http://www.w3.org/2000/svg">
  <path d="M0,192L48,197.3C96,203,192,213,288,229.3C384,245,480,267,576,250.7C672,235,768,181,864,181.3C960,181,1056,235,1152,234.7C1248,235,1344,181,1392,154.7L1440,128L1440,320L1392,320C1344,320,1248,320,1152,320C1056,320,960,320,864,320C768,320,672,320,576,320C480,320,384,320,288,320C192,320,96,320,48,320L0,320Z" fill="white" opacity="0.1"/>
  <path d="M0,160L48,170.7C96,181,192,203,288,202.7C384,203,480,181,576,154.7C672,128,768,96,864,106.7C960,117,1056,171,1152,197.3C1248,224,1344,224,1392,224L1440,224L1440,320L1392,320C1344,320,1248,320,1152,320C1056,320,960,320,864,320C768,320,672,320,576,320C480,320,384,320,288,320C192,320,96,320,48,320L0,320Z" fill="white" opacity="0.1"/>
  <path d="M0,96L48,112C96,128,192,160,288,160C384,160,480,128,576,122.7C672,117,768,139,864,149.3C960,160,1056,160,1152,138.7C1248,117,1344,75,1392,53.3L1440,32L1440,320L1392,320C1344,320,1248,320,1152,320C1056,320,960,320,864,320C768,320,672,320,576,320C480,320,384,320,288,320C192,320,96,320,48,320L0,320Z" fill="white" opacity="0.1"/>
</svg> 